{"title":"Rugby.Union.Aviva.Premiership.Highlights.R14.2013.02.11.pdtv.x26","uid":8130564,"size":672362570,"categoryP":"video","categoryS":"tv_shows","magnet":"?xt=urn:btih:394cc05f45b7cefcb912f2ab5b82eb1efe481bdb&amp;dn=Rugby.Union.Aviva.Premiership.Highlights.R14.2013.02.11.pdtv.x26&amp;tr=udp%3A%2F%2Ftracker.openbittorrent.com%3A80&amp;tr=udp%3A%2F%2Fopen.demonii.com%3A1337&amp;tr=udp%3A%2F%2Ftracker.coppersurfer.tk%3A6969&amp;tr=udp%3A%2F%2Fexodus.desync.com%3A6969","seeders":1,"leechers":1,"uploader":"rugbybill","files":3,"time":1360595878,"description":"SPORT: Rugby Highlights - Aviva Premiership\nOn: itv1   \nDate: Monday 11th February 2013\nTime: 00:30 to 01:25\n\nCraig Doyle and Martin Bayfield presents action from round 14 including Wasps visit to The Stoop to play Harlequins. The Premiership's teams will be keen to get back to domestic business after a break for cup competitions.\n\nGeneral\nComplete name                            : 2013.02.11.Rugby.Union.Aviva.Highlights.pdtv.x264.mkv\nFormat                                   : Matroska\nFormat version                           : Version 4 / Version 2\nFile size                                : 641 MiB\nDuration                                 : 45mn 22s\nOverall bit rate                         : 1 974 Kbps\nWriting application                      : mkvmerge v6.0.0 ('Coming Up For Air') built on Jan 20 2013 09:52:00\nWriting library                          : libebml v1.3.0 + libmatroska v1.4.0\n\nVideo\nID                                       : 1\nFormat                                   : AVC\nFormat/Info                              : Advanced Video Codec\nFormat profile                           : &lt;a class=&quot;__cf_email__&quot; href=&quot;/cdn-cgi/l/email-protection&quot; data-cfemail=&quot;246c4d434c6468170a15&quot;&gt;[email&amp;#160;protected]&lt;/a&gt;&lt;script cf-hash='f9e31' type=&quot;text/javascript&quot;&gt;\n/* &lt;![CDATA[ */!function(){try{var t=&quot;currentScript&quot;in document?document.currentScript:function(){for(var t=document.getElementsByTagName(&quot;script&quot;),e=t.length;e--;)if(t[e].getAttribute(&quot;cf-hash&quot;))return t[e]}();if(t&amp;&amp;t.previousSibling){var e,r,n,i,c=t.previousSibling,a=c.getAttribute(&quot;data-cfemail&quot;);if(a){for(e=&quot;&quot;,r=parseInt(a.substr(0,2),16),n=2;a.length-n;n+=2)i=parseInt(a.substr(n,2),16)^r,e+=String.fromCharCode(i);e=document.createTextNode(e),c.parentNode.replaceChild(e,c)}}}catch(u){}}();/* ]]&gt; */&lt;/script&gt;\nFormat settings, CABAC                   : Yes\nFormat settings, ReFrames                : 5 frames\nDuration                                 : 45mn 22s\nBit rate                                 : 1 807 Kbps\nWidth                                    : 688 pixels\nHeight                                   : 560 pixels\nDisplay aspect ratio                     : 16:9\nFrame rate mode                          : Constant\nFrame rate                               : 25.000 fps\nColor space                              : YUV\nChroma subsampling                       : 4:2:0\nBit depth                                : 8 bits\nScan type                                : Progressive\nBits/(Pixel*Frame)                       : 0.188\nStream size                              : 586 MiB (92%)\nWriting library                          : x264 core 129 r2245 bc13772\n\nAudio\nID                                       : 2\nFormat                                   : AC-3\nFormat/Info                              : Audio Coding 3\nMode extension                           : CM (complete main)\nDuration                                 : 45mn 22s\nBit rate mode                            : Constant\nBit rate                                 : 128 Kbps\nChannel(s)                               : 2 channels\nChannel positions                        : Front: L R\nSampling rate                            : 48.0 KHz\nStream size                              : 41.5 MiB (6%)\nLanguage                                 : English\n\n","torrent":{"xt":"urn:btih:394cc05f45b7cefcb912f2ab5b82eb1efe481bdb","amp;dn":"Rugby.Union.Aviva.Premiership.Highlights.R14.2013.02.11.pdtv.x26","amp;tr":["udp%3A%2F%2Ftracker.openbittorrent.com%3A80","udp%3A%2F%2Fopen.demonii.com%3A1337","udp%3A%2F%2Ftracker.coppersurfer.tk%3A6969","udp%3A%2F%2Fexodus.desync.com%3A6969"],"infoHash":"394cc05f45b7cefcb912f2ab5b82eb1efe481bdb","infoHashBuffer":{"type":"Buffer","data":[57,76,192,95,69,183,206,252,185,18,242,171,91,130,235,30,254,72,27,219]},"announce":[],"urlList":[]}}